<svg xmlns="http://www.w3.org/2000/svg"  viewBox="0 0 48 48" width="96px" height="96px"><path fill="#4b7bb2" d="M37.85,8.33C26.36,9.36,20.07,8.29,8.63,8.45C7.4,8.47,6.47,9.57,6.68,10.79 c1.617,9.179,2.509,20.968,4.173,30.001c0.167,0.907,0.941,1.573,1.862,1.618c3.908,0.191,14.241,0.646,20.665,0.464 c0.847-0.024,1.591-0.583,1.844-1.391c3.082-9.862,2.997-18.138,5.935-28.283C41.57,11.78,41.23,8.33,37.85,8.33z M27.92,32.37 c-0.03,0.27-5.34,0.07-7.06,0l-1.4-0.16c-0.74-5.29-1.46-6.81-2.11-12.27c4.44,0.01,6.4,0.01,12.79-0.52 C29.2,25.33,28.77,25.96,27.92,32.37z"/><path d="M11.331,40.663C9.78,32.19,9.1,23.584,7.864,15.064c-0.152-1.047-0.312-2.092-0.485-3.135 c-0.15-0.907-0.513-1.96,0.33-2.641c0.423-0.342,0.898-0.339,1.417-0.345c0.634-0.007,1.268-0.01,1.902-0.01 c1.113,0,2.227,0.011,3.34,0.031c3.98,0.071,7.957,0.271,11.938,0.312c2.075,0.021,4.15-0.005,6.223-0.093 c1.131-0.048,2.261-0.114,3.39-0.197c0.989-0.072,2.066-0.318,3.031,0.007c1.209,0.408,1.776,1.644,1.837,2.845 c0.029,0.56-0.063,1.047-0.215,1.583c-0.327,1.153-0.624,2.314-0.895,3.482c-1.012,4.357-1.624,8.788-2.366,13.195 c-0.374,2.218-0.788,4.43-1.304,6.62c-0.266,1.129-0.559,2.252-0.882,3.367c-0.292,1.008-0.491,2.179-1.74,2.287 c-1.7,0.146-3.456,0.052-5.16,0.037c-1.916-0.017-3.832-0.058-5.747-0.113c-3.125-0.089-6.249-0.212-9.371-0.362 C12.235,41.891,11.543,41.587,11.331,40.663c-0.144-0.627-1.108-0.362-0.964,0.266c0.198,0.862,0.793,1.558,1.634,1.851 c0.619,0.215,1.356,0.166,2.006,0.196c1.619,0.075,3.239,0.142,4.858,0.202c4.016,0.148,8.036,0.262,12.055,0.235 c1.594-0.01,3.729,0.314,4.613-1.371c0.254-0.484,0.371-1.055,0.523-1.577c0.186-0.638,0.362-1.279,0.529-1.922 c0.313-1.208,0.593-2.424,0.848-3.645c0.968-4.65,1.545-9.368,2.432-14.033c0.484-2.544,1.133-5.028,1.773-7.534 c0.285-1.118,0.181-2.358-0.307-3.405c-0.629-1.351-1.994-2.132-3.477-2.096c-1.294,0.031-2.597,0.212-3.89,0.284 c-1.184,0.066-2.369,0.112-3.554,0.14c-4.246,0.098-8.487-0.082-12.73-0.208c-2.333-0.069-4.666-0.116-7-0.111 c-1.043,0.002-2.313-0.192-3.26,0.344c-0.721,0.407-1.207,1.18-1.261,2.006c-0.032,0.475,0.097,0.956,0.176,1.421 c0.095,0.562,0.187,1.124,0.275,1.688c0.177,1.131,0.342,2.265,0.499,3.399c0.326,2.36,0.617,4.724,0.904,7.089 c0.564,4.646,1.098,9.298,1.825,13.922c0.164,1.045,0.341,2.088,0.531,3.128C10.482,41.561,11.446,41.293,11.331,40.663z"/><path d="M19.946,32.075c-0.575-4.068-1.604-8.05-2.097-12.131c-0.167,0.167-0.333,0.333-0.5,0.5 c4.282,0.009,8.525-0.173,12.793-0.529c-0.161-0.211-0.321-0.422-0.482-0.633c-0.504,3.142-1.197,6.249-1.703,9.391 c-0.159,0.988-0.302,1.978-0.437,2.97c-0.014,0.101-0.07,0.27-0.05,0.369c0.062,0.295,0.238-0.126,0.253-0.074 c0.005,0.018-0.163,0.018-0.104,0.024c-0.194-0.022-0.427,0.031-0.624,0.037c-1.388,0.044-2.781-0.011-4.168-0.057 c-1.132-0.037-2.239-0.104-3.364-0.233c-0.638-0.073-0.633,0.927,0,1c2.469,0.283,4.996,0.362,7.481,0.291 c0.359-0.01,0.866,0.031,1.191-0.159c0.236-0.138,0.268-0.332,0.303-0.588c0.087-0.651,0.177-1.301,0.273-1.95 c0.24-1.625,0.526-3.241,0.843-4.852c0.386-1.962,0.754-3.926,1.071-5.901c0.047-0.291-0.127-0.663-0.482-0.633 c-4.268,0.356-8.511,0.537-12.793,0.529c-0.246,0-0.533,0.231-0.5,0.5c0.504,4.172,1.544,8.24,2.132,12.397 C19.071,32.976,20.035,32.706,19.946,32.075z"/><path fill="none" stroke="#000" stroke-miterlimit="10" d="M30.142,19.415c1.448,0.069,5.063-0.403,9.833-1.163"/></svg>